<?xml version="1.0" encoding="UTF-8" standalone="no"?>
<!-- Created with Inkscape (http://www.inkscape.org/) -->

<svg
   width="256"
   height="256"
   viewBox="0 0 67.733332 67.733335"
   version="1.1"
   id="svg5"
   inkscape:version="1.1.1 (3bf5ae0d25, 2021-09-20)"
   sodipodi:docname="icon.svg"
   inkscape:export-filename="C:\Users\User\Downloads\icon-128x128.png"
   inkscape:export-xdpi="48.000004"
   inkscape:export-ydpi="48.000004"
   xmlns:inkscape="http://www.inkscape.org/namespaces/inkscape"
   xmlns:sodipodi="http://sodipodi.sourceforge.net/DTD/sodipodi-0.dtd"
   xmlns="http://www.w3.org/2000/svg"
   xmlns:svg="http://www.w3.org/2000/svg">
  <sodipodi:namedview
     id="namedview7"
     pagecolor="#ffffff"
     bordercolor="#666666"
     borderopacity="1.0"
     inkscape:pageshadow="2"
     inkscape:pageopacity="0.0"
     inkscape:pagecheckerboard="0"
     inkscape:document-units="mm"
     showgrid="false"
     inkscape:zoom="1.877186"
     inkscape:cx="87.631167"
     inkscape:cy="150.49121"
     inkscape:window-width="1920"
     inkscape:window-height="1017"
     inkscape:window-x="-8"
     inkscape:window-y="-8"
     inkscape:window-maximized="1"
     inkscape:current-layer="layer1"
     units="px" />
  <defs
     id="defs2">
    <style
       id="style864">.cls-1,.cls-6{fill:none;}.cls-2{clip-path:url(#clip-path);}.cls-3{fill:#33c6f4;}.cls-4{fill:#1b447e;}.cls-5{fill:#fff;}.cls-6{stroke:#221e1f;stroke-miterlimit:10;stroke-width:7.16px;}</style>
    <clipPath
       id="clip-path"
       transform="translate(1.72)">
      <circle
         class="cls-1"
         cx="119.73"
         cy="119.73"
         r="116.15"
         id="circle866" />
    </clipPath>
    <style
       id="style7786">.cls-1,.cls-6{fill:none;}.cls-2{clip-path:url(#clip-path);}.cls-3{fill:#33c6f4;}.cls-4{fill:#1b447e;}.cls-5{fill:#fff;}.cls-6{stroke:#221e1f;stroke-miterlimit:10;stroke-width:7.16px;}</style>
    <clipPath
       id="clip-path-7"
       transform="translate(1.72)">
      <circle
         class="cls-1"
         cx="119.73"
         cy="119.73"
         r="116.15"
         id="circle7788" />
    </clipPath>
    <clipPath
       id="clip-path-6"
       transform="translate(1.72)">
      <circle
         class="cls-1"
         cx="119.73"
         cy="119.73"
         r="116.15"
         id="circle866-9" />
    </clipPath>
    <clipPath
       id="clip0">
      <rect
         width="98"
         height="31.6039"
         fill="white"
         transform="translate(15 85)"
         id="rect7008" />
    </clipPath>
    <style
       id="style864-6">.cls-1,.cls-6{fill:none;}.cls-2{clip-path:url(#clip-path);}.cls-3{fill:#33c6f4;}.cls-4{fill:#1b447e;}.cls-5{fill:#fff;}.cls-6{stroke:#221e1f;stroke-miterlimit:10;stroke-width:7.16px;}</style>
    <clipPath
       id="clip-path-4"
       transform="translate(1.72)">
      <circle
         class="cls-1"
         cx="119.73"
         cy="119.73"
         r="116.15"
         id="circle866-4" />
    </clipPath>
    <style
       id="style7786-2">.cls-1,.cls-6{fill:none;}.cls-2{clip-path:url(#clip-path);}.cls-3{fill:#33c6f4;}.cls-4{fill:#1b447e;}.cls-5{fill:#fff;}.cls-6{stroke:#221e1f;stroke-miterlimit:10;stroke-width:7.16px;}</style>
    <clipPath
       id="clip-path-7-0"
       transform="translate(1.72)">
      <circle
         class="cls-1"
         cx="119.73"
         cy="119.73"
         r="116.15"
         id="circle7788-8" />
    </clipPath>
    <clipPath
       id="clip-path-6-1"
       transform="translate(1.72)">
      <circle
         class="cls-1"
         cx="119.73"
         cy="119.73"
         r="116.15"
         id="circle866-9-6" />
    </clipPath>
  </defs>
  <g
     inkscape:label="Ebene 1"
     inkscape:groupmode="layer"
     id="layer1">
    <rect
       style="fill:#ffb100;fill-opacity:1;fill-rule:evenodd;stroke:none;stroke-width:1.52009;stroke-linecap:round;stroke-linejoin:round;stroke-miterlimit:0;stroke-dasharray:none;stroke-opacity:1;paint-order:fill markers stroke"
       id="rect20237"
       width="67.73333"
       height="67.73333"
       x="0"
       y="-1.7763568e-15"
       ry="0" />
    <rect
       style="fill:#ffffff;fill-opacity:1;fill-rule:evenodd;stroke:#ffffff;stroke-width:1.64423;stroke-linecap:round;stroke-linejoin:miter;stroke-miterlimit:4;stroke-dasharray:none;stroke-opacity:1;paint-order:fill markers stroke"
       id="rect11186-5"
       width="60.355766"
       height="16.785881"
       x="3.6887834"
       y="30.709326"
       ry="0.81008631" />
    <rect
       style="fill:#ffffff;fill-opacity:1;fill-rule:evenodd;stroke:#ffffff;stroke-width:1.42889;stroke-linecap:round;stroke-linejoin:miter;stroke-miterlimit:4;stroke-dasharray:none;stroke-opacity:1;paint-order:fill markers stroke"
       id="rect11186-5-9"
       width="60.57111"
       height="12.631874"
       x="3.5811117"
       y="51.375538"
       ry="0.60961407" />
    <g
       id="g41870"
       transform="translate(4.8789215,0.79556946)">
      <g
         aria-label="Contact"
         transform="scale(0.98414009,1.0161155)"
         id="text6474"
         style="font-size:8.36118px;fill:#1b447e;stroke-width:0.209031">
        <path
           d="m 11.781397,33.045602 h -1.300496 q -0.03563,-0.252379 -0.145489,-0.448344 -0.109859,-0.198935 -0.282071,-0.338486 -0.1722119,-0.139551 -0.3978688,-0.21378 -0.2226876,-0.07423 -0.4839745,-0.07423 -0.4720979,0 -0.8224599,0.234564 -0.3503619,0.231595 -0.5433579,0.676971 -0.192996,0.442406 -0.192996,1.074839 0,0.650248 0.192996,1.092654 0.1959651,0.442406 0.5463271,0.668063 0.350362,0.225657 0.8105832,0.225657 0.2583177,0 0.4780362,-0.06829 0.2226877,-0.06829 0.3948996,-0.198934 0.172212,-0.133613 0.28504,-0.323639 0.115798,-0.190027 0.160335,-0.433499 l 1.300496,0.0059 q -0.05048,0.418653 -0.252379,0.807614 -0.198934,0.385992 -0.53742,0.691817 -0.335516,0.302855 -0.801675,0.481005 -0.4631907,0.175181 -1.048117,0.175181 -0.8135524,0 -1.4548929,-0.368177 -0.6383714,-0.368177 -1.0095175,-1.065932 -0.368177,-0.697754 -0.368177,-1.689457 0,-0.994672 0.3741153,-1.692426 0.3741153,-0.697755 1.0154559,-1.062963 0.6413405,-0.368177 1.4430162,-0.368177 0.5285121,0 0.979826,0.148459 0.454283,0.148458 0.804645,0.433498 0.350362,0.282071 0.57008,0.691817 0.222688,0.409745 0.28504,0.938257 z"
           style="-inkscape-font-specification:'Inter Italic'"
           id="path1531" />
        <path
           d="m 14.741657,37.086641 q -0.691816,0 -1.196575,-0.293947 -0.501789,-0.296917 -0.774953,-0.825429 -0.273163,-0.531482 -0.273163,-1.232206 0,-0.706662 0.273163,-1.235174 0.273164,-0.531481 0.774953,-0.825429 0.504759,-0.296917 1.196575,-0.296917 0.691817,0 1.193606,0.296917 0.504759,0.293948 0.777923,0.825429 0.273163,0.528512 0.273163,1.235174 0,0.700724 -0.273163,1.232206 -0.273164,0.528512 -0.777923,0.825429 -0.501789,0.293947 -1.193606,0.293947 z m 0.0059,-0.979826 q 0.314732,0 0.525543,-0.17815 0.210811,-0.181119 0.317701,-0.492882 0.109859,-0.311763 0.109859,-0.709631 0,-0.397869 -0.109859,-0.709632 -0.10689,-0.311762 -0.317701,-0.492882 -0.210811,-0.181119 -0.525543,-0.181119 -0.317701,0 -0.534451,0.181119 -0.21378,0.18112 -0.323639,0.492882 -0.10689,0.311763 -0.10689,0.709632 0,0.397868 0.10689,0.709631 0.109859,0.311763 0.323639,0.492882 0.21675,0.17815 0.534451,0.17815 z"
           style="-inkscape-font-specification:'Inter Italic'"
           id="path1533" />
        <path
           d="m 19.076642,34.360944 v 2.636622 h -1.264866 v -4.560644 h 1.205482 v 0.804645 h 0.05344 q 0.151428,-0.397868 0.507728,-0.629464 0.356301,-0.234564 0.864028,-0.234564 0.475068,0 0.828399,0.207842 0.353331,0.207842 0.549296,0.593834 0.195965,0.383023 0.195965,0.914504 v 2.903847 h -1.264866 v -2.67819 q 0.003,-0.418653 -0.21378,-0.653218 -0.216749,-0.237533 -0.596803,-0.237533 -0.255349,0 -0.451314,0.109859 -0.192996,0.109859 -0.302855,0.32067 -0.10689,0.207842 -0.109859,0.50179 z"
           style="-inkscape-font-specification:'Inter Italic'"
           id="path1535" />
        <path
           d="m 25.436596,32.436922 v 0.950135 H 22.690114 V 32.436922 Z M 23.31364,31.344268 h 1.264866 v 4.25185 q 0,0.175181 0.05344,0.273164 0.05344,0.09501 0.148458,0.133613 0.09798,0.0386 0.225657,0.0386 0.08908,0 0.17815,-0.01485 0.08908,-0.01781 0.136582,-0.02672 l 0.198934,0.941227 q -0.09501,0.02969 -0.267225,0.06829 -0.172212,0.04157 -0.418653,0.05048 -0.457252,0.01781 -0.801675,-0.121736 -0.341455,-0.139551 -0.531482,-0.433499 -0.190026,-0.293948 -0.187057,-0.742292 z"
           style="-inkscape-font-specification:'Inter Italic'"
           id="path1537" />
        <path
           d="m 27.559537,37.083672 q -0.436468,0 -0.777922,-0.151427 -0.341454,-0.154397 -0.540389,-0.454283 -0.195965,-0.302856 -0.195965,-0.754169 0,-0.380054 0.139551,-0.638372 0.139551,-0.258317 0.380054,-0.415683 0.240502,-0.157366 0.546327,-0.237534 0.308793,-0.08017 0.647279,-0.112828 0.397868,-0.04157 0.64134,-0.0772 0.243472,-0.0386 0.353331,-0.112828 0.10986,-0.07423 0.10986,-0.219719 v -0.01781 q 0,-0.282071 -0.178151,-0.436468 -0.175181,-0.154396 -0.49882,-0.154396 -0.341454,0 -0.543358,0.151427 -0.201903,0.148459 -0.267225,0.374116 l -1.169853,-0.09501 q 0.08908,-0.415684 0.350362,-0.718539 0.261287,-0.305824 0.674002,-0.469128 0.415683,-0.166274 0.96201,-0.166274 0.380054,0 0.727447,0.08908 0.350362,0.08908 0.620556,0.276133 0.273164,0.187057 0.43053,0.481005 0.157366,0.290979 0.157366,0.697755 v 3.076059 h -1.199545 v -0.632433 h -0.03563 q -0.109859,0.21378 -0.293947,0.377085 -0.184089,0.160335 -0.442407,0.252379 -0.258317,0.08908 -0.596803,0.08908 z m 0.362239,-0.872936 q 0.279102,0 0.492882,-0.109859 0.21378,-0.112828 0.335516,-0.302855 0.121736,-0.190027 0.121736,-0.43053 v -0.483974 q -0.05938,0.0386 -0.163304,0.07126 -0.100952,0.02969 -0.228626,0.05641 -0.127675,0.02375 -0.255349,0.04454 -0.127674,0.01782 -0.231595,0.03266 -0.222688,0.03266 -0.388961,0.103921 -0.166274,0.07126 -0.258318,0.192996 -0.09204,0.118767 -0.09204,0.296917 0,0.258318 0.187058,0.3949 0.190026,0.133612 0.481005,0.133612 z"
           style="-inkscape-font-specification:'Inter Italic'"
           id="path1539" />
        <path
           d="m 33.171266,37.086641 q -0.700724,0 -1.205482,-0.296917 -0.50179,-0.299886 -0.771984,-0.831367 -0.267226,-0.531481 -0.267226,-1.223298 0,-0.700724 0.270195,-1.229236 0.273163,-0.531481 0.774953,-0.828398 0.501789,-0.299886 1.193606,-0.299886 0.596803,0 1.045147,0.216749 0.448345,0.21675 0.709632,0.60868 0.261287,0.39193 0.288009,0.920442 H 34.01451 q -0.05048,-0.341454 -0.267225,-0.549296 -0.21378,-0.210811 -0.561173,-0.210811 -0.293948,0 -0.513666,0.160335 -0.21675,0.157366 -0.338485,0.460222 -0.121736,0.302855 -0.121736,0.733384 0,0.436468 0.118766,0.742293 0.121736,0.305824 0.341455,0.466159 0.219718,0.160335 0.513666,0.160335 0.216749,0 0.388961,-0.08908 0.175181,-0.08907 0.28801,-0.258317 0.115797,-0.172212 0.151427,-0.412715 h 1.193606 q -0.02969,0.522574 -0.28504,0.920442 -0.252379,0.3949 -0.697755,0.617588 -0.445375,0.222687 -1.054055,0.222687 z"
           style="-inkscape-font-specification:'Inter Italic'"
           id="path1541" />
        <path
           d="m 38.447468,32.436922 v 0.950135 h -2.746482 v -0.950135 z m -2.122956,-1.092654 h 1.264866 v 4.25185 q 0,0.175181 0.05344,0.273164 0.05345,0.09501 0.148458,0.133613 0.09798,0.0386 0.225657,0.0386 0.08907,0 0.17815,-0.01485 0.08908,-0.01781 0.136582,-0.02672 l 0.198934,0.941227 q -0.09501,0.02969 -0.267225,0.06829 -0.172212,0.04157 -0.418653,0.05048 -0.457252,0.01781 -0.801675,-0.121736 -0.341455,-0.139551 -0.531482,-0.433499 -0.190026,-0.293948 -0.187057,-0.742292 z"
           style="-inkscape-font-specification:'Inter Italic'"
           id="path1543" />
      </g>
      <g
         aria-label="Form 7"
         transform="scale(0.98414009,1.0161155)"
         id="text6474-3"
         style="font-size:8.36118px;fill:#1b447e;stroke-width:0.209031">
        <path
           d="m 6.3092185,44.475666 v -6.080858 h 4.0261935 v 1.059993 H 7.5948688 v 1.448955 h 2.4733182 v 1.059993 H 7.5948688 v 2.511917 z"
           style="-inkscape-font-specification:'Inter Italic'"
           id="path1560" />
        <path
           d="m 12.903726,44.564741 q -0.691817,0 -1.196575,-0.293948 -0.50179,-0.296917 -0.774954,-0.825429 -0.273163,-0.531481 -0.273163,-1.232205 0,-0.706662 0.273163,-1.235174 0.273164,-0.531481 0.774954,-0.825429 0.504758,-0.296917 1.196575,-0.296917 0.691816,0 1.193606,0.296917 0.504759,0.293948 0.777922,0.825429 0.273164,0.528512 0.273164,1.235174 0,0.700724 -0.273164,1.232205 -0.273163,0.528512 -0.777922,0.825429 -0.50179,0.293948 -1.193606,0.293948 z m 0.0059,-0.979826 q 0.314732,0 0.525543,-0.17815 0.210811,-0.181119 0.317701,-0.492882 0.109859,-0.311763 0.109859,-0.709631 0,-0.397869 -0.109859,-0.709632 -0.10689,-0.311763 -0.317701,-0.492882 -0.210811,-0.181119 -0.525543,-0.181119 -0.317701,0 -0.53445,0.181119 -0.21378,0.181119 -0.32364,0.492882 -0.10689,0.311763 -0.10689,0.709632 0,0.397868 0.10689,0.709631 0.10986,0.311763 0.32364,0.492882 0.216749,0.17815 0.53445,0.17815 z"
           style="-inkscape-font-specification:'Inter Italic'"
           id="path1562" />
        <path
           d="m 15.973844,44.475666 v -4.560644 h 1.226267 v 0.795738 h 0.04751 q 0.124705,-0.424592 0.418653,-0.641341 0.293948,-0.219718 0.67697,-0.219718 0.09501,0 0.204873,0.01188 0.109859,0.01188 0.192996,0.03266 v 1.122346 q -0.08907,-0.02672 -0.246441,-0.04751 -0.157366,-0.02078 -0.288009,-0.02078 -0.279102,0 -0.498821,0.121736 -0.216749,0.118767 -0.344423,0.332547 -0.124705,0.21378 -0.124705,0.492882 v 2.580208 z"
           style="-inkscape-font-specification:'Inter Italic'"
           id="path1564" />
        <path
           d="m 19.391354,44.475666 v -4.560644 h 1.205482 v 0.804645 h 0.05344 q 0.14252,-0.400838 0.475067,-0.632433 0.332547,-0.231595 0.795738,-0.231595 0.469128,0 0.798706,0.234564 0.329578,0.231595 0.439437,0.629464 h 0.04751 q 0.139551,-0.39193 0.504759,-0.626495 0.368177,-0.237533 0.869966,-0.237533 0.638372,0 1.03624,0.406776 0.400838,0.403807 0.400838,1.146099 v 3.067152 h -1.261897 v -2.817741 q 0,-0.380054 -0.201903,-0.570081 -0.201904,-0.190027 -0.504759,-0.190027 -0.344424,0 -0.53742,0.219719 -0.192996,0.216749 -0.192996,0.573049 v 2.785081 h -1.226267 v -2.844464 q 0,-0.335516 -0.192996,-0.53445 -0.190026,-0.198935 -0.501789,-0.198935 -0.210811,0 -0.380054,0.10689 -0.166273,0.103921 -0.264256,0.293948 -0.09798,0.187058 -0.09798,0.439437 v 2.737574 z"
           style="-inkscape-font-specification:'Inter Italic'"
           id="path1566" />
        <path
           d="m 29.183647,44.475666 2.520824,-4.988204 v -0.04157 h -2.936508 v -1.051086 h 4.266696 v 1.065931 l -2.523794,5.014927 z"
           style="-inkscape-font-specification:'Inter Italic'"
           id="path1568" />
      </g>
    </g>
    <g
       id="g30395"
       transform="matrix(0.76974392,0,0,0.76974392,15.035614,12.698983)">
      <g
         id="Layer_1"
         data-name="Layer 1"
         transform="matrix(0.06584914,0,0,0.06584914,41.104718,26.417268)">
        <g
           class="cls-2"
           clip-path="url(#clip-path)"
           id="g7801">
          <circle
             class="cls-3"
             cx="121.45"
             cy="119.73"
             r="116.15"
             id="circle7793" />
          <path
             class="cls-4"
             d="m 239.32,167.79 c -53.41,-24 -108.37,-91.46 -113,-94.55 -4.63,-3.09 -10.84,0.77 -10.84,0.77 -3.87,-6.19 -10.06,0.77 -10.06,0.77 -28.65,48.77 -105.28,95.33 -105.28,95.33 0,0 36.8,67.68 121.86,67.68 86.48,0 117.32,-70 117.32,-70 z"
             transform="translate(1.72)"
             id="path7795" />
          <path
             class="cls-5"
             d="m 67.48,116.58 c 0,0 15.48,-7 12.38,4.65 -3.1,11.65 -15.48,28.64 -11.61,29.41 3.87,0.77 14.75,-10.06 17.81,-8.52 3.06,1.54 5.42,0.78 3.87,6.2 -1.55,5.42 -3.1,9.29 0,9.29 3.1,0 5.42,-7 9.29,-13.94 3.87,-6.94 10.06,-3.87 12.38,-1.55 2.32,2.32 9.29,15.49 14.71,13.94 5.42,-1.55 8.51,-8.52 6.19,-24 -2.32,-15.48 1.55,-20.12 1.55,-20.12 0,0 4.64,-2.32 13.16,8.51 8.52,10.83 24,27.09 26.31,26.32 2.31,-0.77 -10.83,-17.8 -7.74,-19.35 3.09,-1.55 15.48,2.32 21.68,7.74 0,0 2.12,8.87 2.12,0.36 L 126.31,73.24 115.47,74 105.41,74.77 c 0,0 -24.77,37.17 -37.93,41.81 z"
             transform="translate(1.72)"
             id="path7797" />
          <path
             class="cls-6"
             d="m 239.32,170.11 c -53.41,-24 -108.37,-93.78 -113,-96.87 -4.63,-3.09 -10.84,0.77 -10.84,0.77 -3.87,-6.19 -10.06,0.77 -10.06,0.77 C 76.77,123.55 0.14,170.11 0.14,170.11"
             transform="translate(1.72)"
             id="path7799" />
        </g>
        <circle
           class="cls-6"
           cx="121.45"
           cy="119.73"
           r="116.15"
           id="circle7803" />
      </g>
    </g>
    <g
       id="g42245"
       transform="rotate(90,12.090387,48.172764)">
      <path
         style="fill:#1b447e;fill-opacity:1;stroke:#1b447e;stroke-width:0.264583px;stroke-linecap:butt;stroke-linejoin:miter;stroke-opacity:1"
         d="m -36.082377,-7.4701797 h 19.168763 L -36.082377,11.769056 Z"
         id="path921"
         sodipodi:nodetypes="cccc" />
      <path
         d="m -32.739128,1.4847849 c -0.125483,0.00216 -0.248231,0.032471 -0.368569,0.091199 -0.120237,0.058476 -0.222303,0.1298582 -0.305842,0.2133973 -0.198805,0.1988049 -0.301264,0.4144945 -0.307282,0.647408 -0.0058,0.2324962 0.105469,0.4632482 0.334285,0.6920642 0.07159,0.07159 0.156761,0.13503 0.256485,0.191048 0.09918,0.05547 0.207359,0.08985 0.323818,0.102783 0.116333,0.01301 0.237069,-0.0013 0.362355,-0.04306 0.125288,-0.04174 0.249596,-0.124294 0.372943,-0.24764 0.07361,-0.07361 0.136314,-0.154084 0.188035,-0.241843 0.05174,-0.0875 0.08849,-0.203856 0.110317,-0.349053 l -0.322141,-0.3221442 -0.49823,0.4982302 -0.387889,-0.3878892 0.900987,-0.900987 0.898078,0.8980779 c 0.0777,0.4393553 -0.07683,0.8520093 -0.462699,1.2378823 -0.200746,0.200745 -0.403529,0.340424 -0.608277,0.417722 -0.204898,0.077697 -0.402856,0.109572 -0.593879,0.095673 -0.190743,-0.013976 -0.371604,-0.066036 -0.541343,-0.156762 -0.170065,-0.090398 -0.321775,-0.202285 -0.455042,-0.335552 -0.147214,-0.147214 -0.26611,-0.309817 -0.356608,-0.487742 -0.09061,-0.178011 -0.14075,-0.363522 -0.150844,-0.556808 -0.0097,-0.1926882 0.02506,-0.3896535 0.104525,-0.590298 0.07964,-0.2010114 0.214918,-0.3969097 0.405767,-0.5877587 0.143262,-0.1432615 0.301662,-0.256415 0.475999,-0.3388627 0.173918,-0.0824727 0.38207,-0.12200166 0.625157,-0.11780066 l -9.9e-5,0.57871176"
         style="fill:#ffffff;fill-opacity:1;fill-rule:nonzero;stroke:none;stroke-width:0.0351616"
         id="path12318" />
      <path
         d="m -30.44765,1.3952786 0.396764,-0.39676406 c 0.113325,-0.113325 0.188392,-0.226274 0.225095,-0.3385498 0.03701,-0.1125577 0.04682,-0.2208575 0.02994,-0.3251588 -0.01678,-0.1045885 -0.05401,-0.2035747 -0.111985,-0.2969129 -0.05761,-0.0935171 -0.124116,-0.1781198 -0.199674,-0.253678 -0.07361,-0.0736126 -0.156788,-0.1366942 -0.249202,-0.1893824 -0.09258,-0.0527329 -0.189406,-0.0850822 -0.290797,-0.0971157 -0.101662,-0.0117568 -0.206391,0.00146 -0.314792,0.0403038 -0.108649,0.0389353 -0.217331,0.112849 -0.32678,0.2222976 l -0.396763,0.396763 z m -1.262074,-2.05560136 c 0.17889,-0.1788896 0.361861,-0.3063079 0.548636,-0.38213934 0.187342,-0.075459 0.37021,-0.1082037 0.549225,-0.098208 0.178984,0.010026 0.350989,0.056713 0.516082,0.1402534 0.165115,0.083516 0.316333,0.19395424 0.453552,0.33117304 0.137246,0.1372458 0.249628,0.2894032 0.337316,0.4563614 0.0875,0.1671484 0.138684,0.3416697 0.153631,0.523691 0.01487,0.1818977 -0.01405,0.3679975 -0.08642,0.5578756 -0.07275,0.19005176 -0.200445,0.37642996 -0.38351,0.55949566 l -0.856433,0.8564326 -2.088497,-2.08849686 0.856433,-0.8564326"
         style="fill:#ffffff;fill-opacity:1;fill-rule:nonzero;stroke:none;stroke-width:0.0351616"
         id="path12320" />
      <path
         d="m -28.783194,-1.444751 0.519314,-0.5193144 c 0.111213,-0.1112128 0.163447,-0.2260113 0.156669,-0.3444725 -0.0071,-0.1184303 -0.05224,-0.2193169 -0.13578,-0.302857 -0.08382,-0.083821 -0.184805,-0.1290653 -0.304373,-0.1372954 -0.119465,-0.00779 -0.234834,0.043881 -0.346047,0.1550935 l -0.519314,0.5193144 z m 0.426649,0.4266495 0.590796,0.59079564 -0.465485,0.4654853 -2.088496,-2.08849604 0.9848,-0.9847996 c 0.133067,-0.1330678 0.270019,-0.2301761 0.410044,-0.2907942 0.14035,-0.060692 0.278067,-0.090006 0.413349,-0.088191 0.134904,0.00184 0.264568,0.031851 0.387814,0.089658 0.123342,0.057717 0.235806,0.1371399 0.337197,0.2385311 0.105468,0.1054682 0.18649,0.2204691 0.243093,0.3446671 0.05654,0.1245234 0.08508,0.2531117 0.08501,0.3864472 9.4e-5,0.1331614 -0.03021,0.2689436 -0.09103,0.4072318 -0.06068,0.1384152 -0.156637,0.2751349 -0.287763,0.4101424 l -0.519314,0.5193137"
         style="fill:#ffffff;fill-opacity:1;fill-rule:nonzero;stroke:none;stroke-width:0.0351616"
         id="path12322" />
      <path
         d="m -27.369108,-4.2014415 0.608672,0.6086718 0.531274,-0.5312743 c 0.05371,-0.053707 0.09084,-0.1088049 0.111849,-0.1655196 0.02069,-0.056975 0.02934,-0.1118821 0.02526,-0.1654867 -0.0038,-0.053871 -0.017,-0.1034275 -0.03867,-0.1493499 -0.02186,-0.045786 -0.04983,-0.085376 -0.08361,-0.1191613 -0.03585,-0.035847 -0.07898,-0.06633 -0.129849,-0.091036 -0.0507,-0.024835 -0.103438,-0.039735 -0.158127,-0.044861 -0.05475,-0.00487 -0.111957,0.00261 -0.171407,0.022234 -0.05965,0.020005 -0.116536,0.056912 -0.170163,0.1105401 z m 3.076129,0.3013656 -0.516206,0.5162063 -1.220128,-0.1524114 -0.337317,0.3373172 0.68627,0.6862697 -0.465387,0.4653866 -2.088496,-2.0884959 0.990619,-0.9906192 c 0.125284,-0.125284 0.255512,-0.2168845 0.390823,-0.2744612 0.135084,-0.057604 0.268442,-0.086452 0.399945,-0.086623 0.130904,-2.305e-4 0.255543,0.025908 0.372847,0.077573 0.117223,0.051785 0.22182,0.1233801 0.31329,0.2148502 0.0676,0.067602 0.126857,0.1396738 0.177445,0.2162882 0.05063,0.076825 0.08595,0.160737 0.105966,0.2520109 0.01981,0.091737 0.02245,0.192417 0.0073,0.3031552 -0.01495,0.1103047 -0.054,0.2328644 -0.1177,0.3682715 l 1.264912,0.1194571 0.03583,0.035833"
         style="fill:#ffffff;fill-opacity:1;fill-rule:nonzero;stroke:none;stroke-width:0.0351616"
         id="path12324" />
    </g>
    <g
       id="g7837-2-3"
       transform="matrix(1.1952122,0,0,1.1952122,10.881885,75.359858)"
       style="fill:#1b447e;fill-opacity:1">
      <g
         aria-label="WPForms"
         transform="scale(0.98414009,1.0161155)"
         id="text6474-1-5"
         style="font-size:6.99556px;line-height:1.25;stroke-width:0.17489">
        <path
           d="m -2.4411801,-12.041605 -1.4557522,-5.08768 h 1.1750355 l 0.8421501,3.535043 h 0.042232 l 0.9290978,-3.535043 h 1.00610862 l 0.92661358,3.542496 h 0.044716 l 0.8421502,-3.542496 h 1.1750354 l -1.4557522,5.08768 H 0.58211419 l -0.96884534,-3.326369 h -0.0397475 l -0.96636115,3.326369 z"
           style="font-weight:bold;font-family:Inter;-inkscape-font-specification:'Inter Italic'"
           id="path1843" />
        <path
           d="m 3.6600564,-12.041605 v -5.08768 h 2.0072488 q 0.578823,0 0.9862349,0.221095 0.4074119,0.218612 0.6210547,0.608634 0.216127,0.387538 0.216127,0.894319 0,0.50678 -0.2186112,0.894319 -0.2186113,0.387538 -0.6334758,0.603665 -0.4123804,0.216127 -0.998656,0.216127 H 4.3606061 v -0.862024 h 1.1054774 q 0.3105273,0 0.5117491,-0.106822 0.2037059,-0.109305 0.3030747,-0.30059 0.1018529,-0.193769 0.1018529,-0.444675 0,-0.253391 -0.1018529,-0.442191 -0.099369,-0.191285 -0.3030747,-0.295622 -0.203706,-0.106822 -0.5167175,-0.106822 H 4.7357232 v 4.208267 z"
           style="font-weight:bold;font-family:Inter;-inkscape-font-specification:'Inter Italic'"
           id="path1845" />
        <path
           d="m 8.191263,-12.041605 v -5.08768 h 3.368601 v 0.886866 H 9.2669298 v 1.212299 h 2.0693542 v 0.886866 H 9.2669298 v 2.101649 z"
           style="font-weight:bold;font-family:Inter;-inkscape-font-specification:'Inter Italic'"
           id="path1847" />
        <path
           d="m 13.708698,-11.967078 q -0.578823,0 -1.00114,-0.245938 -0.419833,-0.248422 -0.648381,-0.690613 -0.228548,-0.444675 -0.228548,-1.030951 0,-0.591244 0.228548,-1.033435 0.228548,-0.444675 0.648381,-0.690613 0.422317,-0.248421 1.00114,-0.248421 0.578823,0 0.998656,0.248421 0.422317,0.245938 0.650865,0.690613 0.228549,0.442191 0.228549,1.033435 0,0.586276 -0.228549,1.030951 -0.228548,0.442191 -0.650865,0.690613 -0.419833,0.245938 -0.998656,0.245938 z m 0.005,-0.819793 q 0.263327,0 0.439706,-0.149053 0.17638,-0.151537 0.265812,-0.41238 0.09192,-0.260843 0.09192,-0.593728 0,-0.332886 -0.09192,-0.593729 -0.08943,-0.260843 -0.265812,-0.41238 -0.176379,-0.151537 -0.439706,-0.151537 -0.265812,0 -0.44716,0.151537 -0.178864,0.151537 -0.27078,0.41238 -0.08943,0.260843 -0.08943,0.593729 0,0.332885 0.08943,0.593728 0.09192,0.260843 0.27078,0.41238 0.181348,0.149053 0.44716,0.149053 z"
           style="font-weight:bold;font-family:Inter;-inkscape-font-specification:'Inter Italic'"
           id="path1849" />
        <path
           d="m 16.277379,-12.041605 v -3.81576 h 1.025982 v 0.665771 h 0.03975 q 0.104337,-0.355244 0.350274,-0.536592 0.245938,-0.183832 0.566402,-0.183832 0.07949,0 0.171411,0.0099 0.09192,0.0099 0.161475,0.02733 v 0.939035 q -0.07453,-0.02236 -0.206191,-0.03975 -0.131663,-0.01739 -0.240969,-0.01739 -0.233516,0 -0.417348,0.101853 -0.181348,0.09937 -0.28817,0.278233 -0.104337,0.178863 -0.104337,0.41238 v 2.158786 z"
           style="font-weight:bold;font-family:Inter;-inkscape-font-specification:'Inter Italic'"
           id="path1851" />
        <path
           d="m 19.13671,-12.041605 v -3.81576 h 1.008593 v 0.673223 h 0.04472 q 0.119242,-0.335369 0.397475,-0.529138 0.278232,-0.193769 0.66577,-0.193769 0.392507,0 0.668255,0.196253 0.275748,0.193769 0.367665,0.526654 h 0.03975 q 0.116758,-0.327917 0.422317,-0.52417 0.308043,-0.198737 0.727876,-0.198737 0.534107,0 0.866993,0.340338 0.335369,0.337853 0.335369,0.958908 v 2.566198 h -1.055793 v -2.357524 q 0,-0.31798 -0.168927,-0.47697 -0.168927,-0.15899 -0.422317,-0.15899 -0.288169,0 -0.449643,0.183833 -0.161475,0.181348 -0.161475,0.479454 v 2.330197 h -1.025982 v -2.379882 q 0,-0.280716 -0.161474,-0.447159 -0.15899,-0.166443 -0.419833,-0.166443 -0.17638,0 -0.31798,0.08943 -0.139116,0.08695 -0.221096,0.245938 -0.08198,0.156506 -0.08198,0.367664 v 2.29045 z"
           style="font-weight:bold;font-family:Inter;-inkscape-font-specification:'Inter Italic'"
           id="path1853" />
        <path
           d="m 28.691005,-14.769277 -0.968846,0.05962 q -0.02484,-0.124211 -0.106821,-0.22358 -0.08198,-0.101853 -0.216127,-0.161474 -0.131664,-0.06211 -0.315496,-0.06211 -0.245938,0 -0.414864,0.104337 -0.168927,0.101853 -0.168927,0.273264 0,0.136632 0.109305,0.231032 0.109306,0.0944 0.375117,0.151538 l 0.690613,0.139116 q 0.556465,0.114274 0.829729,0.367664 0.273264,0.253391 0.273264,0.665771 0,0.375117 -0.221095,0.658318 -0.218611,0.283201 -0.601181,0.442191 -0.380086,0.156506 -0.876929,0.156506 -0.757687,0 -1.207331,-0.315496 -0.447159,-0.31798 -0.52417,-0.864508 l 1.040888,-0.05465 q 0.0472,0.231032 0.228548,0.352759 0.181348,0.119242 0.464549,0.119242 0.278232,0 0.447159,-0.106821 0.171411,-0.109306 0.173896,-0.280717 -0.0025,-0.144084 -0.121727,-0.236001 -0.119243,-0.0944 -0.367664,-0.144084 l -0.660803,-0.131664 q -0.558949,-0.11179 -0.832213,-0.387538 -0.27078,-0.275748 -0.27078,-0.703034 0,-0.367664 0.198738,-0.633476 0.201221,-0.265811 0.563917,-0.409896 0.36518,-0.144084 0.854572,-0.144084 0.722907,0 1.137772,0.305558 0.417349,0.305559 0.486907,0.832214 z"
           style="font-weight:bold;font-family:Inter;-inkscape-font-specification:'Inter Italic'"
           id="path1855" />
      </g>
    </g>
    <g
       id="g8970"
       transform="matrix(0.80370246,0,0,0.80370246,41.796715,13.530664)">
      <path
         d="m 10.350353,56.41106 c 0.882673,0.122788 1.648516,-0.08164 2.280274,-0.643075 l 1.05251,0.0596 -0.573334,1.678309 c -0.637116,1.013199 -1.55494,1.221786 -2.503176,1.163381 l -0.256874,-2.251062 z"
         fill="#7eaaba"
         id="path6878"
         style="stroke-width:0.187376" />
      <path
         d="m 10.741931,56.791302 0.175216,1.537665 c 0.783719,-0.0059 1.414877,-0.262833 1.882736,-0.97623 l 0.417193,-1.204509 -0.461901,-0.02324 c -0.563515,0.462968 -1.278767,0.700393 -2.007285,0.666309 z"
         fill="#d3e8ef"
         id="path6880"
         style="stroke-width:0.187376" />
      <path
         d="m 10.741931,56.791302 0.104894,0.911866 c 1.081722,-0.128127 1.923846,-0.572733 2.362512,-1.55494 l -0.4619,-0.02324 c -0.563066,0.462538 -1.277606,0.699943 -2.005506,0.666309 z"
         fill="#ffffff"
         id="path6882"
         style="stroke-width:0.187376" />
      <path
         d="m 10.607227,55.089759 c 0.353634,0 0.699325,0.104855 0.993355,0.301319 0.294031,0.196465 0.523192,0.475711 0.658515,0.80242 0.135342,0.326709 0.170737,0.686209 0.101745,1.033042 -0.06899,0.346833 -0.239279,0.665429 -0.489333,0.915482 -0.250034,0.250053 -0.56863,0.420341 -0.915463,0.489333 -0.346833,0.06897 -0.706333,0.03357 -1.0330418,-0.101746 C 9.5962949,58.394268 9.3170487,58.165107 9.1205845,57.871076 8.9241211,57.577046 8.8192462,57.231355 8.8192462,56.87772 c 0,-0.474192 0.1883879,-0.928973 0.5236975,-1.264282 0.3353097,-0.33531 0.7900903,-0.523679 1.2642833,-0.523679 z"
         fill="#7eaaba"
         id="path6884"
         style="stroke-width:0.187376" />
      <path
         d="m 10.607227,55.43841 c -0.282901,0 -0.559449,0.08389 -0.7946811,0.241059 -0.2352136,0.157171 -0.4185606,0.380561 -0.5268079,0.641932 -0.1082657,0.26137 -0.136597,0.548974 -0.081396,0.826441 0.055182,0.277466 0.1914232,0.532336 0.3914474,0.732378 0.2000427,0.200043 0.4549116,0.336265 0.7323776,0.391466 0.277467,0.05518 0.56507,0.02687 0.826442,-0.0814 0.261371,-0.108266 0.48476,-0.291594 0.641932,-0.526826 0.15717,-0.235232 0.241077,-0.511781 0.241077,-0.794682 0,-0.379361 -0.150706,-0.743171 -0.418954,-1.011418 -0.268248,-0.268248 -0.632075,-0.418954 -1.011437,-0.418954 z"
         fill="#d3e8ef"
         id="path6886"
         style="stroke-width:0.187376" />
      <path
         d="m 10.607227,55.43841 c -0.231035,-8.5e-4 -0.458791,0.0546 -0.663574,0.161574 -0.2047832,0.106954 -0.3804109,0.262195 -0.5117241,0.452288 0.023852,0.363585 0.1847528,0.704591 0.4502459,0.954138 0.2654932,0.249566 0.6157742,0.389087 0.9801462,0.390436 0.231034,8.5e-4 0.45879,-0.05462 0.663573,-0.161574 0.204784,-0.106955 0.380412,-0.262215 0.511724,-0.452308 -0.02372,-0.363641 -0.184584,-0.704702 -0.450096,-0.954287 -0.26553,-0.249585 -0.615886,-0.389068 -0.980295,-0.390267 z"
         fill="#ffffff"
         id="path6888"
         style="stroke-width:0.187376" />
      <path
         d="m 10.420094,55.347214 c 0.263676,0 0.521449,0.07821 0.740698,0.224701 0.219249,0.146491 0.390136,0.354722 0.491038,0.59833 0.10092,0.243626 0.127322,0.511686 0.07587,0.770303 -0.05144,0.258635 -0.17842,0.49619 -0.364878,0.682648 -0.186458,0.186458 -0.424013,0.313424 -0.68263,0.364878 -0.258617,0.05144 -0.526695,0.02503 -0.7703032,-0.07587 C 9.6662616,57.811285 9.4580492,57.640416 9.3115396,57.421167 9.1650492,57.201919 9.0868568,56.944145 9.0868568,56.680451 9.0867818,56.505348 9.1212042,56.33195 9.1881901,56.17015 9.2551568,56.00837 9.353362,55.861355 9.4771803,55.737536 9.600998,55.613719 9.7479948,55.515515 9.9097943,55.448547 10.071575,55.38158 10.244991,55.347139 10.420094,55.347214 Z"
         fill="#7eaaba"
         id="path6890"
         style="stroke-width:0.187376" />
      <path
         d="m 10.326519,54.990225 c 0.264762,-1.13e-4 0.523622,0.07825 0.743864,0.225207 0.220242,0.146941 0.391991,0.355884 0.49353,0.60039 0.101539,0.244527 0.128315,0.513655 0.07695,0.773395 -0.05138,0.259741 -0.178569,0.498421 -0.365552,0.68589 -0.186964,0.187471 -0.425306,0.315299 -0.684897,0.36737 -0.259591,0.05205 -0.528794,0.02599 -0.7736012,-0.07489 C 9.5720301,57.4667 9.3626372,57.295513 9.2150972,57.075665 9.0675763,56.855816 8.988503,56.597162 8.9879222,56.3324 8.9880724,55.977097 9.1290354,55.636335 9.3799504,55.384763 9.6308469,55.133211 9.9712159,54.99133 10.326519,54.990225 Z"
         fill="#7f3e13"
         id="path6892"
         style="stroke-width:0.187376" />
      <path
         d="m 10.455246,55.505153 c -0.210461,0 -0.416218,0.06241 -0.591247,0.179319 -0.1750087,0.116904 -0.3114563,0.283088 -0.3920465,0.477509 -0.080609,0.194441 -0.1017454,0.408405 -0.06077,0.614837 0.040962,0.206452 0.1422187,0.396113 0.2909768,0.54504 0.1487389,0.148908 0.3382887,0.250372 0.5447027,0.291594 0.206394,0.0412 0.420378,0.0203 0.614912,-0.06009 0.194515,-0.08038 0.360848,-0.216625 0.47794,-0.391522 0.11711,-0.174897 0.179731,-0.380561 0.179975,-0.591041 2.43e-4,-0.139914 -0.02713,-0.278497 -0.08052,-0.407806 -0.0534,-0.129326 -0.131781,-0.24683 -0.23066,-0.345821 -0.09886,-0.09899 -0.216288,-0.177482 -0.345559,-0.231034 -0.129252,-0.05353 -0.267798,-0.08106 -0.407711,-0.08098 z"
         fill="#b85a1b"
         id="path6894"
         style="stroke-width:0.187376" />
      <path
         d="m 9.6542315,53.908502 c 0.02325,-0.747968 1.1401465,-0.795055 1.1693395,0 0.327796,-0.549499 1.350514,-0.245556 1.029276,0.613863 0.01729,0.07032 0.02921,0.134705 0.04113,0.205027 0.555458,0.02919 0.73665,0.900549 -0.02384,1.169339 -0.05599,0.222959 -0.157452,0.431958 -0.298003,0.613863 -0.655592,0.561436 -0.865378,0.09954 -1.216427,-0.280707 -0.339113,0.01192 -1.2742138,-0.233621 -1.0131801,0.643673 -0.5959871,-0.374883 -0.9821882,-1.146685 -0.6901626,-2.280872 -0.402877,-0.911866 0.6609694,-1.25158 1.0000828,-0.689545 z"
         fill="#7f3e13"
         id="path6896"
         style="stroke-width:0.187376" />
      <path
         d="m 9.0111566,54.723214 c -0.1400444,0.549518 -0.1460032,1.169339 0.2455568,1.613945 0.5494992,0.625799 1.6604336,0.596006 2.0859646,-0.193091 0.228261,-0.426731 0.216345,-0.958953 0.119209,-1.426813 -0.812932,-0.175215 -1.6431578,-0.146022 -2.4560892,0.01192 z"
         fill="#b85a1b"
         id="path6898"
         style="stroke-width:0.187376" />
      <path
         d="m 9.0111566,54.723214 c -0.1400444,0.549518 -0.1460032,1.169339 0.2455568,1.613945 0.124062,0.13759 0.2755368,0.247692 0.4446809,0.323242 0.1691633,0.07555 0.3522487,0.114862 0.5375077,0.115405 v -2.183118 c -0.4122092,0.0087 -0.8229188,0.05231 -1.2277454,0.130526 z"
         fill="#e1762f"
         id="path6900"
         style="stroke-width:0.187376" />
      <path
         d="m 9.5493389,55.140406 c -0.076281,0.304562 -0.08224,0.655592 0.1400636,0.900549 0.3039614,0.351049 0.9237825,0.333754 1.1633805,-0.110852 0.128727,-0.238399 0.122769,-0.532223 0.06436,-0.795056 -0.451502,-0.09179 -0.917037,-0.08998 -1.367808,0.0054 z"
         fill="#7f3e13"
         id="path6902"
         style="stroke-width:0.187376" />
      <path
         d="m 11.355795,53.908502 c 0.06129,0 0.121213,0.01818 0.172179,0.05222 0.05097,0.03406 0.09069,0.08246 0.114149,0.13909 0.02346,0.05663 0.02959,0.118946 0.01763,0.179056 -0.01195,0.06013 -0.04146,0.115349 -0.08483,0.158689 -0.04334,0.04334 -0.09856,0.07285 -0.15867,0.08483 -0.06012,0.01195 -0.122432,0.0058 -0.179057,-0.01765 -0.05664,-0.02346 -0.105043,-0.06316 -0.139089,-0.114131 -0.03406,-0.05097 -0.05224,-0.110889 -0.05224,-0.17218 4.68e-4,-0.08205 0.03328,-0.160619 0.09129,-0.21863 0.05803,-0.05803 0.136578,-0.09082 0.21863,-0.09129 z m -1.122852,0.39216 c 0.0822,0 0.161031,-0.03266 0.219155,-0.09077 0.05811,-0.05812 0.09077,-0.136952 0.09077,-0.219154 0,-0.08218 -0.03266,-0.161013 -0.09077,-0.219136 -0.05812,-0.05812 -0.136953,-0.09078 -0.219155,-0.09078 z"
         fill="#b85a1b"
         id="path6904"
         style="stroke-width:0.187376" />
      <path
         d="m 10.232943,54.300662 v -0.613863 c -0.04181,-0.0018 -0.08353,0.0048 -0.122694,0.01955 -0.03918,0.01473 -0.07495,0.03723 -0.105174,0.06616 -0.030226,0.02893 -0.054283,0.06369 -0.070714,0.102176 -0.016451,0.03847 -0.024921,0.07988 -0.024921,0.12172 0,0.04186 0.00847,0.08325 0.024921,0.121738 0.01643,0.03849 0.040495,0.07323 0.070714,0.102158 0.03022,0.02893 0.066,0.05145 0.105174,0.06618 0.03916,0.01473 0.08089,0.02138 0.122694,0.01955 z M 9.1750552,53.943073 c 0.061308,0 0.1212129,0.01817 0.1721795,0.05222 0.050969,0.03406 0.09069,0.08246 0.1141494,0.139089 0.023462,0.05663 0.029602,0.118946 0.017634,0.179056 -0.011954,0.06013 -0.041465,0.115349 -0.084807,0.158689 -0.043342,0.04334 -0.09856,0.07285 -0.1586884,0.08481 -0.060111,0.01197 -0.1224318,0.0058 -0.1790568,-0.01763 -0.056627,-0.02346 -0.1050434,-0.06318 -0.1390891,-0.11415 -0.03405,-0.05097 -0.052222,-0.11087 -0.052222,-0.17218 7.79e-4,-0.08188 0.033689,-0.160207 0.091664,-0.218068 0.057973,-0.05785 0.136335,-0.09061 0.2182375,-0.09125 z"
         fill="#e1762f"
         id="path6906"
         style="stroke-width:0.187376" />
      <path
         d="m 11.700866,55.031354 c 0.06131,0 0.121214,0.01817 0.17218,0.05222 0.05097,0.03406 0.09069,0.08246 0.114149,0.139089 0.02346,0.05663 0.0296,0.118947 0.01763,0.179057 -0.01195,0.06013 -0.04146,0.115349 -0.08481,0.158689 -0.04334,0.04334 -0.09856,0.07285 -0.158689,0.08481 -0.06011,0.01198 -0.122431,0.0058 -0.179056,-0.01763 -0.05663,-0.02346 -0.105024,-0.06319 -0.13909,-0.114149 -0.03404,-0.05097 -0.05222,-0.110871 -0.05222,-0.17218 4.68e-4,-0.08203 0.03326,-0.1606 0.09129,-0.218612 0.05802,-0.05803 0.136578,-0.09082 0.218611,-0.09129 z"
         fill="#b85a1b"
         id="path6908"
         style="stroke-width:0.187376" />
      <path
         d="m 22.336334,58.691334 c -0.06972,-0.928561 -0.491094,-1.59607 -1.321301,-1.958436 l 0.163897,-0.643075 1.333238,-0.357589 c 1.163362,0.35103 1.619248,1.09364 1.841663,2.029358 l -2.011538,0.935101 z"
         fill="#7eaaba"
         id="path6910"
         style="stroke-width:0.187376" />
      <path
         d="m 22.611102,58.182945 1.327317,-0.619822 c -0.233677,-0.777779 -0.619878,-1.280791 -1.438187,-1.479259 l -1.040593,0.280708 -0.04709,0.175234 c 0.649034,0.368326 1.035234,0.929742 1.191994,1.637181 z"
         fill="#ffffff"
         id="path6912"
         style="stroke-width:0.187376" />
      <path
         d="m 21.050185,58.849273 c -0.107535,-0.32609 -0.115967,-0.676746 -0.02423,-1.007634 0.09174,-0.330887 0.279546,-0.627129 0.539643,-0.851287 0.260116,-0.224158 0.580847,-0.366151 0.921666,-0.408011 0.340799,-0.04188 0.686359,0.01825 0.992999,0.172779 0.306566,0.154529 0.560648,0.396507 0.729662,0.695334 0.1692,0.298846 0.245837,0.641127 0.220354,0.983537 -0.0253,0.34243 -0.151774,0.669627 -0.363135,0.940235 -0.21136,0.27059 -0.498214,0.47245 -0.824305,0.580004 -0.216532,0.07143 -0.444999,0.09951 -0.67238,0.08263 C 22.343097,60.02 22.121262,59.9585 21.917659,59.855892 21.714056,59.753285 21.532638,59.611573 21.383806,59.438849 21.234954,59.266144 21.121592,59.065802 21.050183,58.84927 Z"
         fill="#7eaaba"
         id="path6914"
         style="stroke-width:0.187376" />
      <path
         d="m 21.33687,58.750338 c 0.08915,0.269316 0.256162,0.506141 0.479907,0.680551 0.223746,0.174409 0.494168,0.278572 0.777106,0.299295 0.282919,0.02074 0.565651,-0.04287 0.812425,-0.182804 0.246775,-0.139932 0.44648,-0.349887 0.574083,-0.603332 0.127415,-0.253426 0.176883,-0.538969 0.142031,-0.82052 -0.03485,-0.281552 -0.152336,-0.546464 -0.337651,-0.761234 -0.185278,-0.21479 -0.430122,-0.369787 -0.703542,-0.445431 -0.273419,-0.07564 -0.563121,-0.06853 -0.832493,0.02046 -0.179282,0.05865 -0.345184,0.152168 -0.488171,0.27518 -0.142987,0.123013 -0.260228,0.273101 -0.344978,0.441608 -0.08475,0.168508 -0.135342,0.352117 -0.148852,0.540243 -0.01351,0.188145 0.01033,0.377095 0.07013,0.555982 z"
         fill="#d3e8ef"
         id="path6916"
         style="stroke-width:0.187376" />
      <path
         d="m 24.120174,58.106664 c -0.01143,-0.08739 -0.0313,-0.173435 -0.05959,-0.256874 -0.05865,-0.179262 -0.152149,-0.345166 -0.275068,-0.488152 -0.122919,-0.143005 -0.272932,-0.260284 -0.441364,-0.34509 -0.168451,-0.08481 -0.352005,-0.135454 -0.540111,-0.149058 -0.188089,-0.0136 -0.37702,0.01013 -0.555908,0.06984 -0.222977,0.0712 -0.424182,0.197944 -0.58467,0.368325 0.0116,0.08752 0.03156,0.173754 0.0596,0.257473 0.05835,0.179394 0.151607,0.345484 0.274394,0.488696 0.122807,0.143212 0.272726,0.260715 0.44114,0.345765 0.168395,0.08503 0.351949,0.135904 0.540111,0.149695 0.188145,0.01381 0.377152,-0.0098 0.55617,-0.06931 0.223652,-0.0716 0.425269,-0.199443 0.585288,-0.371304 z"
         fill="#ffffff"
         id="path6918"
         style="stroke-width:0.187376" />
      <path
         d="m 20.722989,59.293879 c -0.101877,-0.307653 -0.110234,-0.638615 -0.024,-0.951027 0.08625,-0.312413 0.263188,-0.592221 0.508482,-0.80405 0.245276,-0.211829 0.547888,-0.34614 0.869519,-0.385957 0.321631,-0.03984 0.647853,0.01664 0.937386,0.16223 0.289553,0.14561 0.529395,0.373816 0.689226,0.65576 0.15987,0.281945 0.232384,0.604944 0.208587,0.928168 -0.02361,0.323205 -0.14278,0.632113 -0.342149,0.887638 -0.199367,0.255525 -0.470032,0.446161 -0.77776,0.547831 -0.204184,0.06804 -0.419779,0.09508 -0.634437,0.07956 -0.214639,-0.01552 -0.424126,-0.07326 -0.616392,-0.16995 -0.192267,-0.0967 -0.363548,-0.230416 -0.504004,-0.393471 -0.140458,-0.163055 -0.247319,-0.352267 -0.314455,-0.556732 z"
         fill="#7f3e13"
         id="path6920"
         style="stroke-width:0.187376" />
      <path
         d="m 21.056162,59.188386 c -0.07986,-0.241734 -0.08619,-0.501718 -0.01823,-0.747068 0.06796,-0.245331 0.207163,-0.464992 0.400011,-0.631195 0.192847,-0.166203 0.430665,-0.271471 0.683342,-0.302463 0.252695,-0.03101 0.508895,0.01364 0.736181,0.128297 0.227306,0.114655 0.415488,0.294161 0.540749,0.51579 0.125243,0.221629 0.181943,0.475448 0.162905,0.729305 -0.01904,0.253876 -0.11295,0.496397 -0.269859,0.696871 -0.156909,0.200473 -0.369768,0.349887 -0.611633,0.429353 -0.32388,0.106261 -0.67669,0.07971 -0.981026,-0.07379 -0.304356,-0.153518 -0.53539,-0.421484 -0.642439,-0.745102 z"
         fill="#b85a1b"
         id="path6922"
         style="stroke-width:0.187376" />
      <path
         d="m 21.003697,58.580482 c 0.04525,-0.285261 0.184978,-0.547044 0.396768,-0.743396 0.211792,-0.196351 0.483393,-0.315897 0.77124,-0.339469 0.287848,-0.02357 0.575283,0.0502 0.816192,0.209486 0.240928,0.159289 0.421372,0.394858 0.512418,0.668952 0.03511,0.103881 0.05675,0.211847 0.06436,0.321238 -0.830807,0.526264 -1.917906,0.409435 -2.562761,-0.122769 z"
         fill="#e1762f"
         id="path6924"
         style="stroke-width:0.187376" />
      <path
         d="m 15.056903,48.763304 c 0.655592,0 1.181257,0.561416 1.181257,1.251579 0,0.690163 -0.526265,1.251578 -1.181257,1.251578 -0.654992,0 -1.181256,-0.562015 -1.181256,-1.251578 0,-0.689563 0.526264,-1.251579 1.181256,-1.251579 z"
         fill="#7f3e13"
         id="path6926"
         style="stroke-width:0.187376" />
      <path
         d="m 15.056903,49.108376 c -0.485135,0 -0.834386,0.432689 -0.834386,0.906507 0,0.473818 0.351031,0.905907 0.834386,0.905907 0.483356,0 0.834387,-0.432689 0.834387,-0.905907 0,-0.473218 -0.349251,-0.906507 -0.834387,-0.906507 z"
         fill="#b85a1b"
         id="path6928"
         style="stroke-width:0.187376" />
      <path
         d="m 15.056903,49.453466 c -0.298002,0 -0.491093,0.280709 -0.491093,0.561417 0,0.280708 0.199049,0.560835 0.491093,0.560835 0.292026,0 0.491094,-0.280708 0.491094,-0.560835 0,-0.280109 -0.199068,-0.561417 -0.491094,-0.561417 z"
         fill="#63300f"
         id="path6930"
         style="stroke-width:0.187376" />
      <path
         d="m 20.079314,48.763304 c 0.655591,0 1.181256,0.561416 1.181256,1.251579 0,0.690163 -0.526245,1.251578 -1.181256,1.251578 -0.654992,0 -1.180657,-0.561415 -1.180657,-1.251578 0,-0.690163 0.526265,-1.251579 1.180657,-1.251579 z"
         fill="#7f3e13"
         id="path6932"
         style="stroke-width:0.187376" />
      <path
         d="m 20.079333,49.108376 c -0.485155,0 -0.834404,0.432689 -0.834404,0.906507 0,0.473818 0.350449,0.905907 0.834404,0.905907 0.483936,0 0.834386,-0.432689 0.834386,-0.905907 0,-0.473218 -0.34867,-0.906507 -0.834386,-0.906507 z"
         fill="#b85a1b"
         id="path6934"
         style="stroke-width:0.187376" />
      <path
         d="m 20.079314,49.453466 c -0.297984,0 -0.491094,0.280709 -0.491094,0.561417 0,0.280708 0.199068,0.560835 0.491094,0.560835 0.292045,0 0.491694,-0.280708 0.491694,-0.560835 0,-0.280109 -0.19905,-0.561417 -0.491694,-0.561417 z"
         fill="#4f2800"
         id="path6936"
         style="stroke-width:0.187376" />
      <path
         d="m 17.09162,49.347974 c 0.07413,-4.68e-4 0.146716,0.02108 0.208588,0.06191 0.06185,0.04085 0.110196,0.09914 0.138902,0.167477 0.02869,0.06835 0.03644,0.14368 0.02228,0.216438 -0.01419,0.07276 -0.04964,0.139671 -0.101876,0.192267 -0.05226,0.05258 -0.118946,0.08846 -0.191611,0.103094 -0.07266,0.01463 -0.148046,0.0074 -0.216569,-0.02089 -0.06855,-0.02826 -0.127135,-0.07623 -0.168357,-0.137835 -0.04124,-0.06159 -0.06326,-0.134048 -0.06326,-0.208174 6.18e-4,-0.09867 0.03993,-0.193147 0.109465,-0.263132 0.06955,-0.07001 0.163786,-0.109915 0.262439,-0.111152 z m 0.953576,0 c 0.07413,-4.68e-4 0.146735,0.02108 0.208588,0.06191 0.06187,0.04085 0.110214,0.09914 0.138901,0.167477 0.0287,0.06835 0.03644,0.14368 0.02228,0.216438 -0.01416,0.07276 -0.04962,0.139671 -0.101876,0.192267 -0.05224,0.05258 -0.118928,0.08846 -0.191592,0.103094 -0.07268,0.01463 -0.148046,0.0074 -0.216588,-0.02089 -0.06853,-0.02826 -0.127116,-0.07623 -0.168358,-0.137835 -0.04122,-0.06159 -0.06324,-0.134048 -0.06324,-0.208174 6e-4,-0.09856 0.03984,-0.19296 0.10924,-0.262926 0.06942,-0.06998 0.163504,-0.109953 0.262064,-0.111358 z"
         fill="#7f3e13"
         id="path6938"
         style="stroke-width:0.187376" />
      <path
         d="m 21.932857,50.908873 v 2.327343 l 0.02383,0.0059 c 0.164535,0.06257 0.305948,0.174016 0.405257,0.319345 0.09931,0.145329 0.151719,0.317584 0.150219,0.493586 v 1.67177 l -4.94077,1.631821 -4.940771,-1.590711 v -1.71288 c -0.0015,-0.176002 0.05091,-0.348257 0.150201,-0.493586 0.09931,-0.145329 0.24074,-0.25678 0.405257,-0.319345 l 0.02325,-0.0059 v -2.332702 c 0,-1.609186 8.72352,-1.609186 8.72352,0 z"
         fill="#7f3e13"
         id="path6940"
         style="stroke-width:0.187376" />
      <path
         d="m 13.600897,50.99709 v 2.507916 l -0.204427,0.08226 c -0.109971,0.04154 -0.20439,0.11606 -0.270328,0.213384 -0.06594,0.0973 -0.100171,0.212634 -0.098,0.330156 v 1.765926 l 4.543252,1.461965 4.543234,-1.497135 v -1.728376 c 0.0013,-0.11741 -0.03339,-0.232403 -0.09933,-0.329557 -0.06594,-0.09716 -0.160001,-0.171806 -0.269597,-0.213983 l -0.204409,-0.08224 V 50.99709 c 0,-1.191994 -7.934441,-1.191994 -7.934441,0 z"
         fill="#b85a1b"
         id="path6942"
         style="stroke-width:0.187376" />
      <path
         d="m 13.600897,50.99709 v 2.507916 l -0.204427,0.08226 c -0.109971,0.04154 -0.20439,0.11606 -0.270328,0.213384 -0.06594,0.0973 -0.100171,0.212634 -0.098,0.330156 v 1.765926 l 4.543252,1.461965 v -0.958954 c -1.572835,0.0054 -3.145652,-1.023317 -2.730838,-3.063992 h 2.730838 V 50.10786 c -1.982271,0 -3.9705,0.298003 -3.9705,0.89399 z"
         fill="#e1762f"
         id="path6944"
         style="stroke-width:0.187376" />
      <path
         d="m 14.624214,52.803527 h 5.905684 c 0.838563,4.4324 -6.806232,4.39723 -5.905684,0 z"
         fill="#e5895b"
         id="path6946"
         style="stroke-width:0.187376" />
      <path
         d="m 14.91684,53.148617 c -0.08224,0.684186 0.06436,1.344555 0.572753,1.859483 0.536401,0.536402 1.350513,0.7748 2.099081,0.765844 0.719355,-0.0059 1.485217,-0.23362 2.017422,-0.74259 0.532223,-0.508989 0.69554,-1.181256 0.625798,-1.882737 z"
         fill="#e5895b"
         id="path6948"
         style="stroke-width:0.187376" />
      <path
         d="m 18.559544,55.218486 c 0.397518,0.514347 1.55494,0.303962 1.209869,-0.783719 z"
         fill="#fad395"
         id="path6950"
         style="stroke-width:0.187376" />
      <path
         d="m 18.196577,55.107635 c 0.444625,0.572752 1.894673,0.23362 1.561499,-1.006042 z"
         fill="#4f2800"
         id="path6952"
         style="stroke-width:0.187376" />
      <path
         d="m 18.582797,54.809051 c 0.03379,-0.01222 0.07045,-0.01396 0.105249,-0.005 0.03479,0.0089 0.06609,0.02816 0.08979,0.05515 0.02372,0.027 0.03875,0.0605 0.04314,0.09616 0.0044,0.03566 -0.0021,0.0718 -0.01849,0.103731 -0.01645,0.03195 -0.04214,0.05818 -0.07373,0.07531 -0.03157,0.01712 -0.06758,0.02434 -0.103319,0.02071 -0.03575,-0.0037 -0.06955,-0.01797 -0.09704,-0.04111 -0.02748,-0.02312 -0.04737,-0.054 -0.05704,-0.08859 -0.01338,-0.04347 -0.0092,-0.09047 0.01161,-0.130901 0.02084,-0.04044 0.05666,-0.07111 0.09983,-0.08544 z m 0.947018,-0.655592 c 0.04426,-0.01 0.09065,-0.0021 0.129083,0.02205 0.03841,0.02414 0.06571,0.06247 0.07594,0.106674 0.01306,0.04347 0.0088,0.09031 -0.01205,0.130676 -0.02078,0.04036 -0.05642,0.07107 -0.0994,0.08567 -0.04418,0.01 -0.0905,0.0021 -0.128821,-0.02211 -0.03832,-0.02414 -0.06551,-0.06247 -0.07561,-0.106617 -0.01291,-0.04332 -0.0086,-0.08996 0.01207,-0.13017 0.02065,-0.04019 0.05605,-0.07087 0.09878,-0.08559 z"
         fill="#ffffff"
         id="path6954"
         style="stroke-width:0.187376" />
      <path
         d="m 19.167448,55.323979 c 0.315879,-0.105493 0.590628,-0.357588 0.637117,-0.760484 -0.256875,-0.03517 -0.700881,0.338513 -0.637117,0.760484 z"
         fill="#ad6151"
         id="path6956"
         style="stroke-width:0.187376" />
      <path
         d="m 15.229739,52.803527 h 4.683897 c 0.66275,3.163527 -5.394315,3.134315 -4.683897,0 z"
         fill="#fad395"
         id="path6958"
         style="stroke-width:0.187376" />
      <path
         d="m 17.571397,54.604024 c 0.02629,-0.191592 0.102551,-0.372879 0.221104,-0.525665 0.560836,-0.08762 1.046571,-0.514347 0.89399,-1.280791 -0.356651,-0.12616 -0.732022,-0.191236 -1.110335,-0.19251 l -0.228261,0.724734 0.228261,1.28079 z"
         fill="#4f2800"
         id="path6960"
         style="stroke-width:0.187376" />
      <path
         d="m 17.571397,54.604024 c -0.02683,-0.191836 -0.103487,-0.373291 -0.222303,-0.526265 -0.561435,-0.08762 -1.04657,-0.514347 -0.89399,-1.280791 0.356839,-0.126216 0.732416,-0.191292 1.110915,-0.192491 v 1.999547 z"
         fill="#63300f"
         id="path6962"
         style="stroke-width:0.187376" />
      <path
         d="m 16.741171,52.909019 c 0.543766,-0.146603 1.116668,-0.146603 1.660433,0 0.23364,0.578712 -1.911929,0.572753 -1.660433,0 z"
         fill="#ad6151"
         id="path6964"
         style="stroke-width:0.187376" />
      <path
         d="m 16.676808,51.301033 c 0.123761,0 0.244769,0.03671 0.347676,0.105474 0.102907,0.06875 0.183122,0.166483 0.230473,0.280839 0.04737,0.114356 0.05977,0.240178 0.03562,0.361561 -0.02416,0.121401 -0.08376,0.232908 -0.171262,0.320413 -0.08752,0.08752 -0.199031,0.147128 -0.320413,0.171281 -0.121401,0.02414 -0.247224,0.01175 -0.36158,-0.03562 -0.114337,-0.04737 -0.212072,-0.127566 -0.280839,-0.230492 -0.06877,-0.102907 -0.105474,-0.223895 -0.105474,-0.347657 1.69e-4,-0.165922 0.06615,-0.325004 0.183478,-0.442339 0.117317,-0.117316 0.276399,-0.183291 0.442321,-0.18346 z"
         fill="#ffffff"
         id="path6966"
         style="stroke-width:0.187376" />
      <path
         d="m 16.723296,51.517377 c 0.09253,0 0.182991,0.02745 0.259928,0.07885 0.07694,0.05142 0.136896,0.124474 0.172311,0.209974 0.03542,0.08548 0.04467,0.179562 0.02663,0.270309 -0.01807,0.09075 -0.06262,0.174109 -0.128053,0.239541 -0.06542,0.06543 -0.148776,0.10999 -0.239542,0.128053 -0.09075,0.01805 -0.184828,0.0088 -0.270308,-0.02663 -0.0855,-0.03542 -0.158558,-0.09537 -0.209974,-0.172312 -0.0514,-0.07694 -0.07885,-0.167402 -0.07885,-0.259928 3.19e-4,-0.123987 0.04971,-0.242802 0.137384,-0.330475 0.08767,-0.08767 0.206489,-0.137065 0.330476,-0.137384 z"
         fill="#1b1d23"
         id="path6968"
         style="stroke-width:0.187376" />
      <path
         d="m 18.477304,51.301033 c -0.123743,1.12e-4 -0.244675,0.03693 -0.347507,0.105755 -0.102833,0.06884 -0.182954,0.166614 -0.230229,0.28097 -0.04727,0.114356 -0.05959,0.24016 -0.03537,0.361524 0.02423,0.121345 0.08387,0.232796 0.171412,0.320263 0.08754,0.08745 0.19905,0.146996 0.320432,0.171093 0.121363,0.0241 0.247168,0.01167 0.361467,-0.03572 0.114318,-0.04738 0.212016,-0.127584 0.280764,-0.230491 0.06873,-0.102888 0.105418,-0.223858 0.105418,-0.347602 -1.5e-4,-0.166033 -0.06622,-0.325191 -0.183666,-0.442545 -0.117466,-0.117334 -0.276698,-0.183253 -0.442713,-0.183253 z"
         fill="#ffffff"
         id="path6970"
         style="stroke-width:0.187376" />
      <path
         d="m 18.430817,51.517377 c -0.09255,0 -0.182992,0.02745 -0.259929,0.07885 -0.07694,0.05142 -0.136915,0.124474 -0.172311,0.209974 -0.03542,0.08548 -0.04469,0.179562 -0.02663,0.270309 0.01805,0.09075 0.0626,0.174109 0.128034,0.239541 0.06543,0.06543 0.148795,0.10999 0.23956,0.128053 0.09075,0.01805 0.18481,0.0088 0.270309,-0.02663 0.08548,-0.03542 0.158558,-0.09537 0.209955,-0.172312 0.05141,-0.07694 0.07885,-0.167402 0.07885,-0.259928 -3e-4,-0.123987 -0.04969,-0.242802 -0.137365,-0.330475 -0.08767,-0.08767 -0.206489,-0.137065 -0.330476,-0.137384 z"
         fill="#1b1d23"
         id="path6972"
         style="stroke-width:0.187376" />
      <path
         d="m 17.132731,51.096024 c -0.446123,-0.09567 -0.911979,-0.01312 -1.298067,0.230042 -0.134686,-0.767643 1.157423,-0.995904 1.298067,-0.230042 z"
         fill="#63300f"
         id="path6974"
         style="stroke-width:0.187376" />
      <path
         d="m 17.892635,50.710404 c 0.497053,-0.09357 0.923783,-0.0059 1.298066,0.228262 0.134687,-0.766443 -1.159801,-0.994105 -1.298066,-0.228262 z"
         fill="#4f2800"
         id="path6976"
         style="stroke-width:0.187376" />
      <path
         d="m 22.506191,55.732833 v 4.812025 c -4.69e-4,0.154979 -0.06219,0.303475 -0.171731,0.413127 -0.109521,0.109634 -0.257961,0.171506 -0.41292,0.172142 h -8.712203 c -0.155035,-4.68e-4 -0.303568,-0.0623 -0.413126,-0.171973 -0.109559,-0.109672 -0.171244,-0.25826 -0.171543,-0.413296 v -4.770914 l 4.94077,1.181256 z"
         fill="#7eaaba"
         id="path6978"
         style="stroke-width:0.187376" />
      <path
         d="m 22.114631,56.235845 -4.543234,1.122851 -4.546831,-1.085901 v 4.168969 c -3.19e-4,0.03848 0.007,0.07666 0.02164,0.112257 0.0146,0.03562 0.03617,0.06796 0.0634,0.09517 0.02724,0.02719 0.05962,0.04866 0.09528,0.0632 0.03564,0.01453 0.07383,0.02179 0.112313,0.0214 h 8.504795 c 0.03849,3.93e-4 0.07667,-0.0069 0.112314,-0.0214 0.03564,-0.01454 0.06804,-0.03601 0.09528,-0.0632 0.02724,-0.02721 0.04879,-0.05954 0.06339,-0.09517 0.01462,-0.0356 0.02196,-0.07377 0.02164,-0.112257 z"
         fill="#d3e8ef"
         id="path6980"
         style="stroke-width:0.187376" />
      <path
         d="m 17.571397,57.358696 -4.543252,-1.085901 v 4.168969 c -3.18e-4,0.03843 0.007,0.07654 0.02158,0.112126 0.01456,0.03558 0.03607,0.06789 0.06324,0.09507 0.02719,0.02719 0.05951,0.04868 0.09508,0.06324 0.03558,0.01458 0.07369,0.0219 0.112144,0.02159 h 4.251208 z"
         fill="#ffffff"
         id="path6982"
         style="stroke-width:0.187376" />
      <path
         d="m 17.571397,58.537573 h 3.81792 v 0.514928 h -3.81792 z m 0,1.058469 h 3.81792 v 0.514347 h -3.81792 z"
         fill="#036aab"
         id="path6984"
         style="stroke-width:0.187376" />
      <path
         d="m 13.752878,58.537573 h 3.818519 v 0.514928 h -3.818519 z m 3.818519,1.572816 v -0.514347 h -3.818519 v 0.514347 z"
         fill="#0399ed"
         id="path6986"
         style="stroke-width:0.187376" />
      <path
         d="m 15.30246,58.206198 h 0.479758 v 2.333301 H 15.30246 Z"
         fill="#ffffff"
         id="path6988"
         style="stroke-width:0.187376" />
      <path
         d="m 13.957886,56.089823 c 1.20451,0.286685 2.409001,0.578711 3.607552,0.865377 l -1.286748,1.215828 c -0.835585,-0.491094 -1.660434,-1.034635 -2.320804,-2.081205 z"
         fill="#7eaaba"
         id="path6990"
         style="stroke-width:0.187376" />
      <path
         d="m 14.981203,56.738856 c 0.37732,0.36068 0.795112,0.676465 1.24504,0.941078 l 0.54414,-0.514348 c -0.596587,-0.140044 -1.193174,-0.286667 -1.78918,-0.42673 z"
         fill="#ffffff"
         id="path6992"
         style="stroke-width:0.187376" />
      <path
         d="m 21.17893,56.089823 c -1.204509,0.286685 -2.409,0.578711 -3.607533,0.865377 l 1.28615,1.215828 c 0.836166,-0.491094 1.660433,-1.034635 2.321383,-2.081205 z"
         fill="#7eaaba"
         id="path6994"
         style="stroke-width:0.187376" />
      <path
         d="m 20.155613,56.738856 c -0.377525,0.36068 -0.795505,0.676484 -1.245619,0.941078 l -0.543541,-0.513148 c 0.596586,-0.141244 1.192574,-0.287867 1.78916,-0.42793 z"
         fill="#ffffff"
         id="path6996"
         style="stroke-width:0.187376" />
    </g>
    <g
       aria-label="STOP"
       transform="scale(0.98414009,1.0161155)"
       id="text6474-1"
       style="font-size:7.52872px;fill:#1b447e;stroke-width:0.188219">
      <path
         d="m 35.277835,10.406545 q 0.01337,-0.334194 -0.195169,-0.5159952 -0.205863,-0.1818014 -0.622937,-0.1818014 -0.283397,0 -0.491934,0.080207 -0.208537,0.077533 -0.334194,0.2165581 -0.122983,0.136351 -0.152392,0.315479 -0.02941,0.147045 0.01872,0.25666 0.0508,0.109616 0.157739,0.189823 0.109616,0.07753 0.259335,0.136351 0.149719,0.05614 0.318152,0.09625 l 0.470545,0.117636 q 0.344889,0.08021 0.620264,0.213884 0.27805,0.133677 0.465198,0.328847 0.189822,0.195169 0.267355,0.45985 0.07753,0.264682 0.02139,0.606897 -0.08555,0.502627 -0.398359,0.871577 -0.312806,0.366277 -0.820781,0.569467 -0.507974,0.200516 -1.176362,0.200516 -0.663041,0 -1.120218,-0.20319 -0.457177,-0.20319 -0.665714,-0.601549 -0.205864,-0.401033 -0.122984,-0.991887 h 1.120218 q -0.02941,0.275375 0.08021,0.45985 0.112289,0.181802 0.334194,0.275376 0.221905,0.0909 0.521342,0.0909 0.296764,0 0.52669,-0.08555 0.232599,-0.08555 0.376971,-0.237946 0.144371,-0.152392 0.176454,-0.350235 0.03208,-0.184475 -0.05614,-0.310132 -0.08823,-0.125657 -0.283396,-0.213884 -0.192496,-0.0909 -0.478566,-0.160413 l -0.57214,-0.149719 q -0.66304,-0.168434 -1.002581,-0.52669 -0.339541,-0.358255 -0.243293,-0.965151 0.08555,-0.497281 0.4144,-0.8689046 0.33152,-0.3742971 0.834148,-0.5801606 0.505301,-0.2085369 1.104176,-0.2085369 0.60957,0 1.029318,0.2112105 0.419747,0.208537 0.612243,0.5828341 0.192496,0.3742972 0.117636,0.8715775 z"
         style="-inkscape-font-specification:'Inter Italic';fill:#ffffff"
         id="path1069" />
      <path
         d="m 37.135949,9.77024 0.160413,-0.9544577 h 4.496913 L 41.632862,9.77024 h -1.676316 l -0.748595,4.520975 H 38.063672 L 38.812266,9.77024 Z"
         style="-inkscape-font-specification:'Inter Italic';fill:#ffffff"
         id="path1071" />
      <path
         d="m 46.859114,11.628358 q -0.149719,0.876925 -0.580161,1.489168 -0.427768,0.612243 -1.045358,0.930396 -0.614917,0.318152 -1.326081,0.318152 -0.745921,0 -1.285978,-0.339541 -0.537384,-0.339541 -0.778004,-0.981193 -0.240619,-0.644326 -0.0909,-1.553333 0.144372,-0.879598 0.574814,-1.491842 0.430442,-0.6149163 1.050705,-0.9357425 0.620264,-0.3234996 1.334102,-0.3234996 0.740574,0 1.277958,0.3422145 0.540057,0.3422145 0.778003,0.9892136 0.24062,0.644326 0.0909,1.556007 z m -1.1523,-0.136351 q 0.09357,-0.564119 -0.008,-0.946437 -0.09892,-0.384992 -0.363603,-0.5828343 -0.264682,-0.1978428 -0.668388,-0.1978428 -0.438462,0 -0.804739,0.2192312 -0.363603,0.2192309 -0.614917,0.6363049 -0.24864,0.414401 -0.344888,1.007929 -0.09625,0.566793 0.0053,0.946437 0.104269,0.379644 0.371624,0.574814 0.270029,0.192495 0.671061,0.192495 0.435789,0 0.796719,-0.213884 0.363603,-0.216557 0.612243,-0.628284 0.24864,-0.414401 0.347562,-1.007929 z"
         style="-inkscape-font-specification:'Inter Italic';fill:#ffffff"
         id="path1073" />
      <path
         d="m 47.270835,14.291215 0.909007,-5.4754327 h 2.16023 q 0.620264,0 1.018623,0.237946 0.401032,0.2352725 0.561445,0.6550201 0.163087,0.4170736 0.07486,0.9624786 -0.0909,0.548078 -0.395686,0.965152 -0.302111,0.4144 -0.786024,0.646999 -0.483913,0.232599 -1.117544,0.232599 h -1.376879 l 0.152392,-0.927722 h 1.189731 q 0.336867,0 0.574813,-0.114963 0.24062,-0.117636 0.382318,-0.3235 0.141698,-0.208537 0.184475,-0.478565 0.04545,-0.275376 -0.02941,-0.478566 Q 50.698328,9.9894712 50.497811,9.8771821 50.299968,9.7622194 49.965775,9.7622194 h -0.780677 l -0.756615,4.5289956 z"
         style="-inkscape-font-specification:'Inter Italic';fill:#ffffff"
         id="path1075" />
    </g>
    <g
       aria-label="SPAM."
       transform="scale(0.98414009,1.0161155)"
       id="text6474-1-30"
       style="font-size:7.52872px;fill:#1b447e;stroke-width:0.188219">
      <path
         d="m 35.277835,18.30979 q 0.01337,-0.334194 -0.195169,-0.515995 -0.205863,-0.181802 -0.622937,-0.181802 -0.283397,0 -0.491934,0.08021 -0.208537,0.07753 -0.334194,0.216557 -0.122983,0.136352 -0.152392,0.31548 -0.02941,0.147045 0.01872,0.25666 0.0508,0.109616 0.157739,0.189823 0.109616,0.07753 0.259335,0.136351 0.149719,0.05614 0.318152,0.09625 l 0.470545,0.117636 q 0.344889,0.08021 0.620264,0.213884 0.27805,0.133677 0.465198,0.328847 0.189822,0.195169 0.267355,0.45985 0.07753,0.264682 0.02139,0.606897 -0.08555,0.502627 -0.398359,0.871577 -0.312806,0.366277 -0.820781,0.569467 -0.507974,0.200516 -1.176362,0.200516 -0.663041,0 -1.120218,-0.20319 -0.457177,-0.20319 -0.665714,-0.601549 -0.205864,-0.401033 -0.122984,-0.991887 h 1.120218 q -0.02941,0.275375 0.08021,0.45985 0.112289,0.181802 0.334194,0.275376 0.221905,0.0909 0.521342,0.0909 0.296764,0 0.52669,-0.08555 0.232599,-0.08555 0.376971,-0.237946 0.144371,-0.152392 0.176454,-0.350235 0.03208,-0.184475 -0.05614,-0.310132 -0.08823,-0.125657 -0.283396,-0.213884 -0.192496,-0.0909 -0.478566,-0.160413 l -0.57214,-0.149719 q -0.66304,-0.168434 -1.002581,-0.52669 -0.339541,-0.358255 -0.243293,-0.965151 0.08555,-0.497281 0.4144,-0.868905 0.33152,-0.374297 0.834148,-0.58016 0.505301,-0.208537 1.104176,-0.208537 0.60957,0 1.029318,0.21121 0.419747,0.208537 0.612243,0.582835 0.192496,0.374297 0.117636,0.871577 z"
         style="-inkscape-font-specification:'Inter Italic';fill:#ffffff"
         id="path1086" />
      <path
         d="m 36.595892,22.19446 0.909007,-5.475433 h 2.16023 q 0.620264,0 1.018623,0.237946 0.401032,0.235273 0.561445,0.65502 0.163087,0.417074 0.07486,0.962479 -0.0909,0.548078 -0.395686,0.965152 -0.302111,0.4144 -0.786024,0.646999 -0.483913,0.232599 -1.117544,0.232599 H 37.643924 L 37.796316,19.4915 h 1.189731 q 0.336867,0 0.574813,-0.114963 0.24062,-0.117636 0.382318,-0.3235 0.141698,-0.208537 0.184475,-0.478565 0.04545,-0.275376 -0.02941,-0.478566 -0.07486,-0.20319 -0.275376,-0.315479 -0.197843,-0.114963 -0.532036,-0.114963 H 38.510155 L 37.75354,22.19446 Z"
         style="-inkscape-font-specification:'Inter Italic';fill:#ffffff"
         id="path1088" />
      <path
         d="m 41.777762,22.19446 h -1.240527 l 2.799208,-5.475433 h 1.491841 l 0.97852,5.475433 h -1.240528 l -0.665714,-4.224211 h -0.04278 z m 0.283397,-2.152209 h 2.930212 l -0.155066,0.903661 h -2.930212 z"
         style="-inkscape-font-specification:'Inter Italic';fill:#ffffff"
         id="path1090" />
      <path
         d="m 47.373492,16.719027 h 1.427676 l 0.900987,3.678807 h 0.06417 l 2.114779,-3.678807 h 1.427676 l -0.909007,5.475433 h -1.122892 l 0.593529,-3.563844 h -0.04812 l -1.999817,3.537108 h -0.767309 l -0.823453,-3.550475 h -0.04545 l -0.598875,3.577211 h -1.122892 z"
         style="-inkscape-font-specification:'Inter Italic';fill:#ffffff"
         id="path1092" />
      <path
         d="m 54.046672,22.263972 q -0.270029,0 -0.44381,-0.187148 -0.171107,-0.187149 -0.155066,-0.454504 0.01872,-0.264682 0.221905,-0.446483 0.205863,-0.184475 0.473218,-0.184475 0.256661,0 0.433116,0.184475 0.176454,0.184475 0.155066,0.446483 -0.01337,0.176454 -0.114963,0.3235 -0.09892,0.144371 -0.251314,0.232599 -0.152392,0.08555 -0.318152,0.08555 z"
         style="-inkscape-font-specification:'Inter Italic';fill:#ffffff"
         id="path1094" />
    </g>
    <g
       id="g41864"
       transform="translate(10.301438,2.6458333)">
      <path
         d="M 19.226104,7.9015168 15.160682,4.723547 H 7.6320002 L 3.5665519,7.9015168 c 0,11.2491412 7.8301471,13.5959722 7.8301471,13.5959722 0,0 7.829405,-2.346831 7.829405,-13.5959722 v 0"
         style="fill:#ffffff;fill-opacity:1;fill-rule:nonzero;stroke:none;stroke-width:0.00702631"
         id="path30" />
      <path
         d="M 14.59578,6.3620713 H 8.1969016 L 7.9003827,6.5939543 5.666005,8.3406803 5.2114075,8.6961988 5.2485409,9.2716575 c 0.2206078,3.4457255 1.2963302,6.2330615 3.1969765,8.2833295 0.8951466,0.965418 1.8106476,1.571115 2.4212626,1.909769 l 0.529788,0.293701 0.529788,-0.293701 c 0.609856,-0.338654 1.525401,-0.944351 2.420548,-1.909769 1.900644,-2.050268 2.976368,-4.837604 3.197695,-8.2833295 L 17.581283,8.6961988 17.127358,8.3406803 14.89298,6.5939543 Z m -0.375915,1.0925873 2.234378,1.7467265 c -0.204462,3.1906719 -1.180437,5.7468419 -2.908198,7.6109409 -0.782739,0.843842 -1.578808,1.380652 -2.149346,1.696853 C 10.826162,18.192978 10.029375,17.656168 9.2466355,16.812326 7.5188767,14.948227 6.5429009,12.392057 6.3384402,9.2013851 L 8.5728178,7.4546586 h 2.8238812 2.823166"
         style="fill:#ffb100;fill-opacity:1;fill-rule:nonzero;stroke:none;stroke-width:0.00702631"
         id="path32" />
    </g>
  </g>
</svg>
